<svg width="152" height="30" viewBox="0 0 152 30" fill="none" xmlns="http://www.w3.org/2000/svg">
<path d="M133.176 25.593C138.882 25.593 143.252 20.5662 143.252 14.5548C143.252 6.35939 136.788 0 128.397 0C120.005 0 113.556 7.20336 113.556 14.5548H113.541C113.541 26.7405 125.878 33.5293 142.509 28.1175L142.289 27.3772C132.509 30.5384 118.01 26.7405 118.01 14.5992C118.01 7.21076 122.691 1.91004 128.389 1.91004C134.087 1.91004 138.768 7.20335 138.768 14.5992C138.768 19.3965 136.272 23.3794 133.161 25.593" fill="#464F4A"/>
<path d="M57.1157 0.740323H46.7517V29.228H56.3722C61.0307 29.228 64.4145 28.4507 67.1383 25.63C69.2854 23.3869 70.9925 19.7815 70.9925 15.11C70.9925 10.4386 69.1792 6.40381 66.7589 4.14582C64.0351 1.56208 60.841 0.747724 57.1233 0.747724M62.9654 25.1414C60.9548 26.6443 58.9366 27.318 55.5148 27.318H50.7122V2.62075H55.401C58.3372 2.62075 62.146 3.4203 64.7787 7.04789C66.0837 8.85429 67.2066 11.6823 67.2066 15.4358C67.2066 21.1141 64.5207 23.9791 62.9654 25.1414Z" fill="#464F4A"/>
<path d="M85.7874 0.740323H75.4234V29.228H85.0438C89.6947 29.228 93.0862 28.4507 95.8099 25.63C97.9571 23.3869 99.6718 19.7815 99.6718 15.11C99.6718 10.4386 97.8584 6.40381 95.4306 4.14582C92.7068 1.56208 89.5202 0.747724 85.795 0.747724M91.637 25.1414C89.6264 26.6443 87.6083 27.318 84.1865 27.318H79.3839V2.62075H84.0727C87.0165 2.62075 90.8176 3.4203 93.4503 7.04789C94.7553 8.85429 95.8782 11.6823 95.8782 15.4358C95.8782 21.1141 93.1924 23.9791 91.637 25.1414Z" fill="#464F4A"/>
<path d="M108.579 0.740323H104.619V29.228H108.579V0.740323Z" fill="#464F4A"/>
<path d="M152 0.740323H148.04V29.228H152V0.740323Z" fill="#464F4A"/>
<path d="M23.5276 29.228H42.245V27.318H27.4957V15.7171H39.0887V14.2364H27.4957V2.66517H42.245V0.725513H23.5276V29.228Z" fill="#464F4A"/>
<path d="M3.59629 6.59628C3.59629 3.76824 6.44145 2.45047 9.44594 2.33202C13.3685 2.17655 16.7675 3.01312 16.7675 3.01312V1.13269C10.9937 -0.333148 0 -0.0296164 0 7.65495C0 16.0873 15.4929 15.1989 15.4929 22.7502C15.4929 24.1716 14.81 25.2525 13.5657 26.1927C10.493 28.4951 2.15474 27.4438 0.220026 27.1033V28.8505C3.80114 29.5019 11.7069 30.3163 15.9936 27.281C18.1787 25.7337 19.294 23.6756 19.294 21.1659C19.294 12.3486 3.59629 13.3036 3.59629 6.60369" fill="#464F4A"/>
</svg>
